<svg width="1480" height="1024" viewBox="0 0 1480 1024" fill="none" xmlns="http://www.w3.org/2000/svg">
<rect width="1480" height="1024" fill="white"/>
<path d="M555.566 145.52H558.206V148.64C558.206 150.533 557.952 152.387 557.446 154.2C556.966 155.987 556.272 157.653 555.366 159.2C554.486 160.747 553.446 162.12 552.246 163.32C551.046 164.493 549.726 165.427 548.286 166.12L546.406 163.56C547.739 162.92 548.966 162.08 550.086 161.04C551.206 160 552.166 158.813 552.966 157.48C553.792 156.147 554.432 154.733 554.886 153.24C555.339 151.72 555.566 150.187 555.566 148.64V145.52ZM556.206 145.52H558.806V148.64C558.806 150.08 559.019 151.52 559.446 152.96C559.899 154.373 560.512 155.72 561.286 157C562.059 158.253 562.979 159.4 564.046 160.44C565.139 161.453 566.339 162.28 567.646 162.92L565.766 165.44C564.352 164.747 563.059 163.827 561.886 162.68C560.739 161.507 559.739 160.187 558.886 158.72C558.032 157.227 557.366 155.627 556.886 153.92C556.432 152.187 556.206 150.427 556.206 148.64V145.52ZM547.406 143.2H566.846V145.88H547.406V143.2ZM555.526 137.6H558.846V144.68H555.526V137.6ZM571.246 136.92H574.566V173.12H571.246V136.92ZM573.806 151.76H580.486V154.56H573.806V151.76ZM583.523 156.04H616.323V158.72H583.523V156.04ZM598.483 157.4H601.803V165.72H598.483V157.4ZM587.683 169.6H612.683V172.32H587.683V169.6ZM587.683 162.48H590.963V170.6H587.683V162.48ZM587.883 138.08H591.163V142.68H608.683V138.08H611.963V152.56H587.883V138.08ZM591.163 145.24V149.88H608.683V145.24H591.163ZM631.609 165.68H664.409V168.48H631.609V165.68ZM634.489 140.56H661.329V143.28H634.489V140.56ZM634.569 155.8H661.249V158.52H634.569V155.8ZM640.089 143.04H643.409V156.12H640.089V143.04ZM652.409 143.04H655.689V156.12H652.409V143.04ZM692.926 136.92H696.206V173.16H692.926V136.92ZM695.446 151.28H702.126V154.08H695.446V151.28ZM669.886 161.64H672.766C675.006 161.64 677.06 161.613 678.926 161.56C680.82 161.48 682.646 161.36 684.406 161.2C686.166 161.013 687.953 160.747 689.766 160.4L690.086 163.12C688.22 163.467 686.393 163.733 684.606 163.92C682.846 164.107 681.006 164.24 679.086 164.32C677.166 164.4 675.06 164.44 672.766 164.44H669.886V161.64ZM669.806 140.28H686.126V153.28H673.166V162.76H669.886V150.52H682.846V143H669.806V140.28ZM731.483 136.92H734.803V173.16H731.483V136.92ZM715.723 139.72C717.51 139.72 719.083 140.24 720.443 141.28C721.83 142.293 722.91 143.747 723.683 145.64C724.483 147.533 724.883 149.76 724.883 152.32C724.883 154.88 724.483 157.107 723.683 159C722.91 160.893 721.83 162.36 720.443 163.4C719.083 164.44 717.51 164.96 715.723 164.96C713.936 164.96 712.35 164.44 710.963 163.4C709.576 162.36 708.483 160.893 707.683 159C706.91 157.107 706.523 154.88 706.523 152.32C706.523 149.76 706.91 147.533 707.683 145.64C708.483 143.747 709.576 142.293 710.963 141.28C712.35 140.24 713.936 139.72 715.723 139.72ZM715.723 142.68C714.523 142.68 713.47 143.08 712.563 143.88C711.683 144.653 710.99 145.773 710.483 147.24C709.976 148.68 709.723 150.373 709.723 152.32C709.723 154.267 709.976 155.973 710.483 157.44C710.99 158.88 711.683 160 712.563 160.8C713.47 161.6 714.523 162 715.723 162C716.896 162 717.923 161.6 718.803 160.8C719.71 160 720.416 158.88 720.923 157.44C721.43 155.973 721.683 154.267 721.683 152.32C721.683 150.373 721.43 148.68 720.923 147.24C720.416 145.773 719.71 144.653 718.803 143.88C717.923 143.08 716.896 142.68 715.723 142.68ZM768.48 136.92H771.76V173.16H768.48V136.92ZM758.96 150.36H769.44V153.08H758.96V150.36ZM743.44 139.76H746.76V149.16H756.8V139.76H760.04V164.04H743.44V139.76ZM746.76 151.8V161.32H756.8V151.8H746.76ZM788.317 140.04H791.077V146.52C791.077 148.6 790.81 150.627 790.277 152.6C789.77 154.547 789.037 156.373 788.077 158.08C787.144 159.76 786.037 161.253 784.757 162.56C783.504 163.84 782.13 164.853 780.637 165.6L778.597 162.84C779.957 162.227 781.224 161.347 782.397 160.2C783.57 159.053 784.597 157.76 785.477 156.32C786.357 154.853 787.05 153.28 787.557 151.6C788.064 149.92 788.317 148.227 788.317 146.52V140.04ZM788.877 140.04H791.637V146.52C791.637 148.173 791.877 149.8 792.357 151.4C792.864 153 793.557 154.52 794.437 155.96C795.344 157.373 796.37 158.627 797.517 159.72C798.69 160.787 799.944 161.627 801.277 162.24L799.277 164.88C797.81 164.187 796.45 163.213 795.197 161.96C793.944 160.707 792.837 159.267 791.877 157.64C790.944 156.013 790.21 154.253 789.677 152.36C789.144 150.467 788.877 148.52 788.877 146.52V140.04ZM805.077 136.92H808.397V173.16H805.077V136.92ZM853.204 136.92H856.524V173.12H853.204V136.92ZM842.604 140.84H845.884C845.884 143.453 845.564 145.973 844.924 148.4C844.31 150.827 843.337 153.133 842.004 155.32C840.67 157.48 838.937 159.493 836.804 161.36C834.67 163.227 832.084 164.893 829.044 166.36L827.284 163.68C830.777 162 833.657 160.04 835.924 157.8C838.19 155.56 839.87 153.067 840.964 150.32C842.057 147.547 842.604 144.56 842.604 141.36V140.84ZM828.964 140.84H844.004V143.52H828.964V140.84ZM888.401 136.96H891.721V163.52H888.401V136.96ZM890.681 147.88H897.041V150.64H890.681V147.88ZM869.201 169.6H893.321V172.32H869.201V169.6ZM869.201 160.96H872.481V170.2H869.201V160.96ZM865.121 139.56H868.401V145.6H878.601V139.56H881.881V157.44H865.121V139.56ZM868.401 148.2V154.76H878.601V148.2H868.401ZM912.158 139.56C914.051 139.56 915.718 139.92 917.158 140.64C918.624 141.333 919.771 142.32 920.598 143.6C921.424 144.88 921.838 146.373 921.838 148.08C921.838 149.76 921.424 151.253 920.598 152.56C919.771 153.84 918.624 154.84 917.158 155.56C915.718 156.253 914.051 156.6 912.158 156.6C910.291 156.6 908.624 156.253 907.158 155.56C905.691 154.84 904.531 153.84 903.678 152.56C902.851 151.253 902.438 149.76 902.438 148.08C902.438 146.373 902.851 144.88 903.678 143.6C904.531 142.32 905.691 141.333 907.158 140.64C908.624 139.92 910.291 139.56 912.158 139.56ZM912.158 142.44C910.931 142.44 909.824 142.68 908.838 143.16C907.878 143.613 907.118 144.267 906.558 145.12C905.998 145.973 905.718 146.96 905.718 148.08C905.718 149.2 905.998 150.187 906.558 151.04C907.118 151.893 907.878 152.56 908.838 153.04C909.824 153.493 910.931 153.72 912.158 153.72C913.411 153.72 914.518 153.493 915.478 153.04C916.438 152.56 917.198 151.893 917.758 151.04C918.318 150.187 918.598 149.2 918.598 148.08C918.598 146.96 918.318 145.973 917.758 145.12C917.198 144.267 916.438 143.613 915.478 143.16C914.518 142.68 913.411 142.44 912.158 142.44ZM926.598 136.92H929.918V173.16H926.598V136.92ZM901.077 165.24L900.638 162.44C902.851 162.44 905.278 162.427 907.918 162.4C910.558 162.347 913.278 162.24 916.078 162.08C918.904 161.893 921.624 161.6 924.238 161.2L924.518 163.64C921.798 164.147 919.038 164.52 916.238 164.76C913.464 164.973 910.784 165.107 908.198 165.16C905.611 165.213 903.237 165.24 901.077 165.24ZM474.729 194.072H479.849V251.992H474.729V194.072ZM465.385 217.368H476.521V221.72H465.385V217.368ZM450.473 201.56H455.529C455.529 205.272 455.166 208.899 454.441 212.44C453.716 215.981 452.521 219.395 450.857 222.68C449.236 225.923 447.038 228.973 444.265 231.832C441.492 234.648 438.036 237.229 433.897 239.576L430.825 235.8C435.689 233.069 439.55 229.976 442.409 226.52C445.268 223.064 447.316 219.331 448.553 215.32C449.833 211.267 450.473 207 450.473 202.52V201.56ZM433.065 201.56H452.201V205.912H433.065V201.56ZM461.929 195.608H466.921V249.112H461.929V195.608ZM531.812 194.136H537.124V236.376H531.812V194.136ZM499.94 246.36H538.916V250.712H499.94V246.36ZM499.94 232.088H505.252V247.832H499.94V232.088ZM506.084 198.168C508.985 198.168 511.567 198.765 513.828 199.96C516.089 201.155 517.881 202.84 519.204 205.016C520.527 207.149 521.188 209.603 521.188 212.376C521.188 215.149 520.527 217.624 519.204 219.8C517.881 221.933 516.089 223.619 513.828 224.856C511.567 226.051 508.985 226.648 506.084 226.648C503.225 226.648 500.644 226.051 498.34 224.856C496.079 223.619 494.287 221.933 492.964 219.8C491.641 217.624 490.98 215.149 490.98 212.376C490.98 209.603 491.641 207.149 492.964 205.016C494.287 202.84 496.079 201.155 498.34 199.96C500.644 198.765 503.225 198.168 506.084 198.168ZM506.084 202.776C504.207 202.776 502.521 203.181 501.028 203.992C499.535 204.803 498.34 205.933 497.444 207.384C496.591 208.835 496.164 210.499 496.164 212.376C496.164 214.296 496.591 215.981 497.444 217.432C498.34 218.84 499.535 219.949 501.028 220.76C502.521 221.571 504.207 221.976 506.084 221.976C507.961 221.976 509.647 221.571 511.14 220.76C512.676 219.949 513.871 218.84 514.724 217.432C515.577 215.981 516.004 214.296 516.004 212.376C516.004 210.499 515.577 208.835 514.724 207.384C513.871 205.933 512.676 204.803 511.14 203.992C509.647 203.181 507.961 202.776 506.084 202.776ZM579.487 209.112H592.479V213.528H579.487V209.112ZM590.879 194.072H596.191V228.568H590.879V194.072ZM577.119 230.36C581.13 230.36 584.564 230.787 587.423 231.64C590.324 232.493 592.543 233.731 594.079 235.352C595.615 236.931 596.383 238.872 596.383 241.176C596.383 244.589 594.655 247.235 591.199 249.112C587.786 250.989 583.092 251.928 577.119 251.928C571.146 251.928 566.431 250.989 562.975 249.112C559.562 247.235 557.855 244.589 557.855 241.176C557.855 238.872 558.623 236.931 560.159 235.352C561.738 233.731 563.956 232.493 566.815 231.64C569.716 230.787 573.151 230.36 577.119 230.36ZM577.119 234.52C574.218 234.52 571.722 234.776 569.631 235.288C567.54 235.8 565.919 236.547 564.767 237.528C563.658 238.509 563.103 239.725 563.103 241.176C563.103 242.541 563.658 243.715 564.767 244.696C565.919 245.677 567.54 246.445 569.631 247C571.722 247.512 574.218 247.768 577.119 247.768C580.063 247.768 582.559 247.512 584.607 247C586.698 246.445 588.298 245.677 589.407 244.696C590.559 243.715 591.135 242.541 591.135 241.176C591.135 239.725 590.559 238.509 589.407 237.528C588.298 236.547 586.698 235.8 584.607 235.288C582.559 234.776 580.063 234.52 577.119 234.52ZM563.295 199.96H567.647V204.632C567.647 208.173 566.964 211.501 565.599 214.616C564.276 217.688 562.399 220.397 559.967 222.744C557.535 225.048 554.719 226.819 551.519 228.056L548.767 223.832C550.943 223.064 552.906 222.019 554.655 220.696C556.447 219.373 557.983 217.859 559.263 216.152C560.586 214.445 561.588 212.611 562.271 210.648C562.954 208.685 563.295 206.68 563.295 204.632V199.96ZM564.319 199.96H568.671V204.568C568.671 207.043 569.247 209.453 570.399 211.8C571.551 214.147 573.194 216.216 575.327 218.008C577.46 219.8 579.914 221.208 582.687 222.232L579.999 226.456C576.842 225.304 574.09 223.64 571.743 221.464C569.396 219.245 567.562 216.685 566.239 213.784C564.959 210.883 564.319 207.811 564.319 204.568V199.96ZM550.431 198.296H581.343V202.648H550.431V198.296ZM607.45 240.216H659.93V244.632H607.45V240.216ZM630.938 226.328H636.186V241.496H630.938V226.328ZM613.594 198.168H618.906V208.472H648.346V198.168H653.594V227.8H613.594V198.168ZM618.906 212.824V223.448H648.346V212.824H618.906ZM726.373 194.072H731.685V252.056H726.373V194.072ZM701.157 198.552C704.016 198.552 706.533 199.384 708.709 201.048C710.928 202.669 712.656 204.995 713.893 208.024C715.173 211.053 715.813 214.616 715.813 218.712C715.813 222.808 715.173 226.371 713.893 229.4C712.656 232.429 710.928 234.776 708.709 236.44C706.533 238.104 704.016 238.936 701.157 238.936C698.298 238.936 695.76 238.104 693.541 236.44C691.322 234.776 689.573 232.429 688.293 229.4C687.056 226.371 686.437 222.808 686.437 218.712C686.437 214.616 687.056 211.053 688.293 208.024C689.573 204.995 691.322 202.669 693.541 201.048C695.76 199.384 698.298 198.552 701.157 198.552ZM701.157 203.288C699.237 203.288 697.552 203.928 696.101 205.208C694.693 206.445 693.584 208.237 692.773 210.584C691.962 212.888 691.557 215.597 691.557 218.712C691.557 221.827 691.962 224.557 692.773 226.904C693.584 229.208 694.693 231 696.101 232.28C697.552 233.56 699.237 234.2 701.157 234.2C703.034 234.2 704.677 233.56 706.085 232.28C707.536 231 708.666 229.208 709.477 226.904C710.288 224.557 710.693 221.827 710.693 218.712C710.693 215.597 710.288 212.888 709.477 210.584C708.666 208.237 707.536 206.445 706.085 205.208C704.677 203.928 703.034 203.288 701.157 203.288ZM749.6 220.376H789.664V224.728H749.6V220.376ZM743.2 240.152H795.68V244.504H743.2V240.152ZM766.688 223H772V241.496H766.688V223ZM749.6 199H754.976V222.232H749.6V199ZM804.123 199.768H809.179V213.912H821.403V199.768H826.267V237.464H804.123V199.768ZM809.179 218.2V233.048H821.403V218.2H809.179ZM846.171 194.072H851.291V251.992H846.171V194.072ZM825.371 216.024H836.507V220.44H825.371V216.024ZM834.651 195.352H839.707V249.112H834.651V195.352ZM902.998 194.072H908.31V252.056H902.998V194.072ZM877.782 198.552C880.641 198.552 883.158 199.384 885.334 201.048C887.553 202.669 889.281 204.995 890.518 208.024C891.798 211.053 892.438 214.616 892.438 218.712C892.438 222.808 891.798 226.371 890.518 229.4C889.281 232.429 887.553 234.776 885.334 236.44C883.158 238.104 880.641 238.936 877.782 238.936C874.923 238.936 872.385 238.104 870.166 236.44C867.947 234.776 866.198 232.429 864.918 229.4C863.681 226.371 863.062 222.808 863.062 218.712C863.062 214.616 863.681 211.053 864.918 208.024C866.198 204.995 867.947 202.669 870.166 201.048C872.385 199.384 874.923 198.552 877.782 198.552ZM877.782 203.288C875.862 203.288 874.177 203.928 872.726 205.208C871.318 206.445 870.209 208.237 869.398 210.584C868.587 212.888 868.182 215.597 868.182 218.712C868.182 221.827 868.587 224.557 869.398 226.904C870.209 229.208 871.318 231 872.726 232.28C874.177 233.56 875.862 234.2 877.782 234.2C879.659 234.2 881.302 233.56 882.71 232.28C884.161 231 885.291 229.208 886.102 226.904C886.913 224.557 887.318 221.827 887.318 218.712C887.318 215.597 886.913 212.888 886.102 210.584C885.291 208.237 884.161 206.445 882.71 205.208C881.302 203.928 879.659 203.288 877.782 203.288ZM950.481 202.648H963.473V207H950.481V202.648ZM950.481 214.488H963.473V218.84H950.481V214.488ZM934.353 197.336H938.641V204.696C938.641 208.493 937.98 212.056 936.657 215.384C935.334 218.669 933.478 221.549 931.089 224.024C928.742 226.456 925.969 228.333 922.769 229.656L919.953 225.432C922.129 224.579 924.092 223.469 925.841 222.104C927.59 220.696 929.084 219.075 930.321 217.24C931.601 215.405 932.582 213.443 933.265 211.352C933.99 209.219 934.353 207 934.353 204.696V197.336ZM935.313 197.336H939.601V204.696C939.601 206.829 939.921 208.899 940.561 210.904C941.244 212.909 942.204 214.787 943.441 216.536C944.678 218.285 946.15 219.843 947.857 221.208C949.606 222.573 951.505 223.661 953.553 224.472L950.609 228.632C947.58 227.395 944.913 225.581 942.609 223.192C940.305 220.76 938.513 217.965 937.233 214.808C935.953 211.651 935.313 208.28 935.313 204.696V197.336ZM962.129 194.136H967.441V237.336H962.129V194.136ZM930.257 246.36H968.785V250.712H930.257V246.36ZM930.257 232.92H935.569V248.664H930.257V232.92ZM1019.42 199.576H1024.09V201.304C1024.09 203.736 1023.49 205.997 1022.3 208.088C1021.11 210.136 1019.46 211.971 1017.37 213.592C1015.32 215.171 1012.96 216.493 1010.27 217.56C1007.62 218.584 1004.81 219.331 1001.82 219.8L999.836 215.512C1001.88 215.256 1003.87 214.829 1005.79 214.232C1007.75 213.592 1009.54 212.845 1011.16 211.992C1012.79 211.096 1014.21 210.093 1015.45 208.984C1016.69 207.832 1017.65 206.616 1018.33 205.336C1019.06 204.056 1019.42 202.712 1019.42 201.304V199.576ZM1021.6 199.576H1026.27V201.304C1026.27 202.712 1026.61 204.056 1027.29 205.336C1028.02 206.616 1029 207.811 1030.24 208.92C1031.47 210.029 1032.9 211.032 1034.52 211.928C1036.19 212.824 1037.98 213.592 1039.9 214.232C1041.82 214.829 1043.8 215.256 1045.85 215.512L1043.87 219.8C1040.92 219.331 1038.11 218.563 1035.42 217.496C1032.73 216.429 1030.36 215.107 1028.32 213.528C1026.27 211.907 1024.63 210.072 1023.39 208.024C1022.19 205.976 1021.6 203.736 1021.6 201.304V199.576ZM1001.5 196.888H1044.25V201.24H1001.5V196.888ZM1003.42 246.36H1043.16V250.712H1003.42V246.36ZM1003.42 234.328H1008.73V248.088H1003.42V234.328ZM996.7 225.304H1049.12V229.656H996.7V225.304ZM1020.19 215.704H1025.44V227.096H1020.19V215.704Z" fill="black"/>
<path d="M490.28 397.92H493.6V434.16H490.28V397.92ZM474.52 400.72C476.307 400.72 477.88 401.24 479.24 402.28C480.627 403.293 481.707 404.747 482.48 406.64C483.28 408.533 483.68 410.76 483.68 413.32C483.68 415.88 483.28 418.107 482.48 420C481.707 421.893 480.627 423.36 479.24 424.4C477.88 425.44 476.307 425.96 474.52 425.96C472.733 425.96 471.147 425.44 469.76 424.4C468.373 423.36 467.28 421.893 466.48 420C465.707 418.107 465.32 415.88 465.32 413.32C465.32 410.76 465.707 408.533 466.48 406.64C467.28 404.747 468.373 403.293 469.76 402.28C471.147 401.24 472.733 400.72 474.52 400.72ZM474.52 403.68C473.32 403.68 472.267 404.08 471.36 404.88C470.48 405.653 469.787 406.773 469.28 408.24C468.773 409.68 468.52 411.373 468.52 413.32C468.52 415.267 468.773 416.973 469.28 418.44C469.787 419.88 470.48 421 471.36 421.8C472.267 422.6 473.32 423 474.52 423C475.693 423 476.72 422.6 477.6 421.8C478.507 421 479.213 419.88 479.72 418.44C480.227 416.973 480.48 415.267 480.48 413.32C480.48 411.373 480.227 409.68 479.72 408.24C479.213 406.773 478.507 405.653 477.6 404.88C476.72 404.08 475.693 403.68 474.52 403.68ZM502.077 402.12H515.877V424.4H502.077V402.12ZM512.757 404.76H505.197V421.76H512.757V404.76ZM528.357 397.92H531.557V434.12H528.357V397.92ZM514.237 411.56H522.557V414.28H514.237V411.56ZM521.157 398.68H524.317V432.28H521.157V398.68ZM547.754 399.24C549.567 399.24 551.167 399.587 552.554 400.28C553.967 400.947 555.074 401.88 555.874 403.08C556.674 404.28 557.074 405.68 557.074 407.28C557.074 408.853 556.674 410.253 555.874 411.48C555.074 412.68 553.967 413.613 552.554 414.28C551.167 414.947 549.567 415.28 547.754 415.28C545.967 415.28 544.367 414.947 542.954 414.28C541.54 413.613 540.42 412.68 539.594 411.48C538.794 410.253 538.394 408.853 538.394 407.28C538.394 405.68 538.794 404.28 539.594 403.08C540.42 401.88 541.54 400.947 542.954 400.28C544.367 399.587 545.967 399.24 547.754 399.24ZM547.754 402C546.58 402 545.527 402.227 544.594 402.68C543.687 403.107 542.967 403.72 542.434 404.52C541.9 405.32 541.634 406.24 541.634 407.28C541.634 408.32 541.9 409.24 542.434 410.04C542.967 410.813 543.687 411.427 544.594 411.88C545.527 412.333 546.58 412.56 547.754 412.56C548.927 412.56 549.967 412.333 550.874 411.88C551.807 411.427 552.54 410.813 553.074 410.04C553.607 409.24 553.874 408.32 553.874 407.28C553.874 406.24 553.607 405.32 553.074 404.52C552.54 403.72 551.807 403.107 550.874 402.68C549.967 402.227 548.927 402 547.754 402ZM563.914 397.92H567.234V416.44H563.914V397.92ZM543.834 418.24H567.234V427H547.154V432.44H543.954V424.52H563.954V420.88H543.834V418.24ZM543.954 430.96H568.474V433.64H543.954V430.96Z" fill="black"/>
<rect x="462" y="450" width="556" height="62" fill="#D9D9D9"/>
<path d="M505.349 465.536H508.005V494.528H505.349V465.536ZM492.741 467.776C494.171 467.776 495.429 468.192 496.517 469.024C497.627 469.835 498.491 470.997 499.109 472.512C499.749 474.027 500.069 475.808 500.069 477.856C500.069 479.904 499.749 481.685 499.109 483.2C498.491 484.715 497.627 485.888 496.517 486.72C495.429 487.552 494.171 487.968 492.741 487.968C491.312 487.968 490.043 487.552 488.933 486.72C487.824 485.888 486.949 484.715 486.309 483.2C485.691 481.685 485.381 479.904 485.381 477.856C485.381 475.808 485.691 474.027 486.309 472.512C486.949 470.997 487.824 469.835 488.933 469.024C490.043 468.192 491.312 467.776 492.741 467.776ZM492.741 470.144C491.781 470.144 490.939 470.464 490.213 471.104C489.509 471.723 488.955 472.619 488.549 473.792C488.144 474.944 487.941 476.299 487.941 477.856C487.941 479.413 488.144 480.779 488.549 481.952C488.955 483.104 489.509 484 490.213 484.64C490.939 485.28 491.781 485.6 492.741 485.6C493.68 485.6 494.501 485.28 495.205 484.64C495.931 484 496.496 483.104 496.901 481.952C497.307 480.779 497.509 479.413 497.509 477.856C497.509 476.299 497.307 474.944 496.901 473.792C496.496 472.619 495.931 471.723 495.205 471.104C494.501 470.464 493.68 470.144 492.741 470.144ZM514.787 468.896H525.827V486.72H514.787V468.896ZM523.331 471.008H517.283V484.608H523.331V471.008ZM535.811 465.536H538.371V494.496H535.811V465.536ZM524.515 476.448H531.171V478.624H524.515V476.448ZM530.051 466.144H532.579V493.024H530.051V466.144ZM551.328 466.592C552.779 466.592 554.059 466.869 555.168 467.424C556.299 467.957 557.184 468.704 557.824 469.664C558.464 470.624 558.784 471.744 558.784 473.024C558.784 474.283 558.464 475.403 557.824 476.384C557.184 477.344 556.299 478.091 555.168 478.624C554.059 479.157 552.779 479.424 551.328 479.424C549.899 479.424 548.619 479.157 547.488 478.624C546.358 478.091 545.462 477.344 544.8 476.384C544.16 475.403 543.84 474.283 543.84 473.024C543.84 471.744 544.16 470.624 544.8 469.664C545.462 468.704 546.358 467.957 547.488 467.424C548.619 466.869 549.899 466.592 551.328 466.592ZM551.328 468.8C550.39 468.8 549.547 468.981 548.8 469.344C548.075 469.685 547.499 470.176 547.072 470.816C546.646 471.456 546.432 472.192 546.432 473.024C546.432 473.856 546.646 474.592 547.072 475.232C547.499 475.851 548.075 476.341 548.8 476.704C549.547 477.067 550.39 477.248 551.328 477.248C552.267 477.248 553.099 477.067 553.824 476.704C554.571 476.341 555.158 475.851 555.584 475.232C556.011 474.592 556.224 473.856 556.224 473.024C556.224 472.192 556.011 471.456 555.584 470.816C555.158 470.176 554.571 469.685 553.824 469.344C553.099 468.981 552.267 468.8 551.328 468.8ZM564.256 465.536H566.912V480.352H564.256V465.536ZM548.192 481.792H566.912V488.8H550.848V493.152H548.288V486.816H564.288V483.904H548.192V481.792ZM548.288 491.968H567.904V494.112H548.288V491.968ZM585.694 466.048C588.894 466.048 591.39 466.485 593.182 467.36C594.974 468.213 595.87 469.44 595.87 471.04C595.87 472.661 594.974 473.909 593.182 474.784C591.39 475.637 588.894 476.064 585.694 476.064C582.515 476.064 580.019 475.637 578.206 474.784C576.414 473.909 575.518 472.661 575.518 471.04C575.518 469.44 576.414 468.213 578.206 467.36C580.019 466.485 582.515 466.048 585.694 466.048ZM585.694 468.032C584.137 468.032 582.803 468.149 581.694 468.384C580.585 468.619 579.731 468.96 579.134 469.408C578.558 469.856 578.27 470.4 578.27 471.04C578.27 471.68 578.558 472.235 579.134 472.704C579.731 473.152 580.585 473.493 581.694 473.728C582.803 473.941 584.137 474.048 585.694 474.048C587.273 474.048 588.617 473.941 589.726 473.728C590.835 473.493 591.678 473.152 592.254 472.704C592.851 472.235 593.15 471.68 593.15 471.04C593.15 470.4 592.851 469.856 592.254 469.408C591.678 468.96 590.835 468.619 589.726 468.384C588.617 468.149 587.273 468.032 585.694 468.032ZM572.638 478.016H598.782V480.16H572.638V478.016ZM575.806 482.624H595.422V489.152H578.462V492.64H575.87V487.2H592.83V484.672H575.806V482.624ZM575.87 492.096H596.286V494.176H575.87V492.096ZM632.131 465.536H634.787V481.088H632.131V465.536ZM616.163 482.528H618.755V486.016H632.163V482.528H634.787V494.112H616.163V482.528ZM618.755 488.128V491.936H632.163V488.128H618.755ZM619.267 466.912C620.739 466.912 622.041 467.2 623.171 467.776C624.302 468.331 625.187 469.109 625.827 470.112C626.489 471.115 626.819 472.277 626.819 473.6C626.819 474.901 626.489 476.064 625.827 477.088C625.187 478.091 624.302 478.869 623.171 479.424C622.041 479.979 620.739 480.256 619.267 480.256C617.817 480.256 616.515 479.979 615.363 479.424C614.233 478.869 613.337 478.091 612.675 477.088C612.035 476.064 611.715 474.901 611.715 473.6C611.715 472.277 612.035 471.115 612.675 470.112C613.337 469.109 614.233 468.331 615.363 467.776C616.515 467.2 617.817 466.912 619.267 466.912ZM619.267 469.152C618.307 469.152 617.454 469.344 616.707 469.728C615.961 470.091 615.374 470.613 614.947 471.296C614.521 471.957 614.307 472.725 614.307 473.6C614.307 474.453 614.521 475.221 614.947 475.904C615.374 476.565 615.961 477.088 616.707 477.472C617.454 477.856 618.307 478.048 619.267 478.048C620.227 478.048 621.081 477.856 621.827 477.472C622.574 477.088 623.161 476.565 623.587 475.904C624.014 475.221 624.227 474.453 624.227 473.6C624.227 472.725 624.014 471.957 623.587 471.296C623.161 470.613 622.574 470.091 621.827 469.728C621.081 469.344 620.227 469.152 619.267 469.152ZM641.729 479.904H643.777C645.676 479.904 647.297 479.893 648.641 479.872C650.006 479.829 651.244 479.755 652.353 479.648C653.484 479.541 654.625 479.381 655.777 479.168L656.033 481.344C655.158 481.493 654.294 481.621 653.441 481.728C652.588 481.813 651.692 481.877 650.753 481.92C649.814 481.963 648.78 481.995 647.649 482.016C646.518 482.037 645.228 482.048 643.777 482.048H641.729V479.904ZM641.665 467.296H654.113V475.488H644.353V481.184H641.729V473.44H651.489V469.44H641.665V467.296ZM661.665 465.568H664.321V483.36H661.665V465.568ZM656.033 469.856H662.273V472H656.033V469.856ZM656.033 475.84H662.273V478.016H656.033V475.84ZM644.961 484.896H664.321V494.528H661.665V487.072H644.961V484.896ZM669.886 470.496H684.254V472.672H669.886V470.496ZM677.086 474.592C678.302 474.592 679.369 474.869 680.286 475.424C681.225 475.979 681.961 476.757 682.494 477.76C683.028 478.741 683.294 479.883 683.294 481.184C683.294 482.485 683.028 483.637 682.494 484.64C681.961 485.621 681.225 486.4 680.286 486.976C679.369 487.531 678.302 487.808 677.086 487.808C675.892 487.808 674.825 487.531 673.886 486.976C672.948 486.4 672.212 485.621 671.678 484.64C671.145 483.637 670.878 482.485 670.878 481.184C670.878 479.883 671.145 478.741 671.678 477.76C672.212 476.779 672.948 476.011 673.886 475.456C674.825 474.88 675.892 474.592 677.086 474.592ZM677.086 476.832C676.361 476.832 675.7 477.024 675.102 477.408C674.526 477.771 674.068 478.283 673.726 478.944C673.406 479.584 673.246 480.331 673.246 481.184C673.246 482.037 673.406 482.795 673.726 483.456C674.068 484.117 674.526 484.629 675.102 484.992C675.7 485.355 676.361 485.536 677.086 485.536C677.833 485.536 678.494 485.355 679.07 484.992C679.646 484.629 680.094 484.117 680.414 483.456C680.756 482.795 680.926 482.037 680.926 481.184C680.926 480.331 680.756 479.584 680.414 478.944C680.094 478.283 679.646 477.771 679.07 477.408C678.494 477.024 677.833 476.832 677.086 476.832ZM691.902 465.536H694.43V494.496H691.902V465.536ZM687.262 477.728H692.734V479.904H687.262V477.728ZM685.694 466.208H688.19V493.088H685.694V466.208ZM675.774 466.4H678.398V471.808H675.774V466.4ZM710.972 468.416H713.276V469.632C713.276 470.656 713.073 471.627 712.668 472.544C712.263 473.461 711.697 474.315 710.972 475.104C710.247 475.872 709.404 476.555 708.444 477.152C707.484 477.749 706.449 478.261 705.34 478.688C704.252 479.093 703.121 479.392 701.948 479.584L700.924 477.472C701.948 477.344 702.94 477.109 703.9 476.768C704.881 476.405 705.799 475.979 706.652 475.488C707.505 474.997 708.252 474.443 708.892 473.824C709.553 473.205 710.065 472.544 710.428 471.84C710.791 471.115 710.972 470.379 710.972 469.632V468.416ZM711.644 468.416H713.948V469.632C713.948 470.379 714.129 471.115 714.492 471.84C714.855 472.544 715.356 473.205 715.996 473.824C716.657 474.443 717.415 474.997 718.268 475.488C719.121 475.979 720.028 476.405 720.988 476.768C721.969 477.109 722.972 477.344 723.996 477.472L723.004 479.584C721.831 479.392 720.689 479.093 719.58 478.688C718.471 478.261 717.436 477.749 716.476 477.152C715.516 476.555 714.673 475.872 713.948 475.104C713.223 474.315 712.657 473.461 712.252 472.544C711.847 471.627 711.644 470.656 711.644 469.632V468.416ZM711.1 483.456H713.724V494.464H711.1V483.456ZM699.388 482.016H725.532V484.192H699.388V482.016ZM701.852 467.328H723.036V469.472H701.852V467.328ZM740.217 475.904H745.785V478.112H740.217V475.904ZM734.841 468.256H736.921V473.792C736.921 475.285 736.761 476.757 736.441 478.208C736.143 479.659 735.695 481.024 735.097 482.304C734.521 483.584 733.817 484.736 732.985 485.76C732.153 486.784 731.215 487.616 730.169 488.256L728.505 486.272C729.487 485.675 730.372 484.928 731.161 484.032C731.951 483.136 732.612 482.133 733.145 481.024C733.7 479.893 734.116 478.72 734.393 477.504C734.692 476.267 734.841 475.029 734.841 473.792V468.256ZM735.353 468.256H737.401V473.696C737.401 474.848 737.529 476.011 737.785 477.184C738.063 478.336 738.447 479.445 738.937 480.512C739.449 481.557 740.079 482.517 740.825 483.392C741.572 484.267 742.415 484.992 743.353 485.568L741.849 487.616C740.804 486.976 739.876 486.165 739.065 485.184C738.255 484.181 737.572 483.061 737.017 481.824C736.463 480.565 736.047 479.243 735.769 477.856C735.492 476.469 735.353 475.083 735.353 473.696V468.256ZM750.873 465.536H753.433V494.496H750.873V465.536ZM744.985 466.144H747.481V493.024H744.985V466.144ZM764.695 480.448H767.319V489.088H764.695V480.448ZM775.383 480.448H778.039V489.088H775.383V480.448ZM758.263 488.576H784.503V490.784H758.263V488.576ZM771.319 467.36C773.367 467.36 775.18 467.669 776.759 468.288C778.338 468.907 779.575 469.771 780.471 470.88C781.388 471.989 781.847 473.301 781.847 474.816C781.847 476.309 781.388 477.621 780.471 478.752C779.575 479.861 778.338 480.725 776.759 481.344C775.18 481.941 773.367 482.24 771.319 482.24C769.292 482.24 767.479 481.941 765.879 481.344C764.3 480.725 763.063 479.861 762.167 478.752C761.271 477.621 760.823 476.309 760.823 474.816C760.823 473.301 761.271 471.989 762.167 470.88C763.063 469.771 764.3 468.907 765.879 468.288C767.479 467.669 769.292 467.36 771.319 467.36ZM771.319 469.472C769.783 469.472 768.418 469.696 767.223 470.144C766.028 470.592 765.09 471.221 764.407 472.032C763.724 472.821 763.383 473.749 763.383 474.816C763.383 475.883 763.724 476.821 764.407 477.632C765.09 478.421 766.028 479.04 767.223 479.488C768.418 479.936 769.783 480.16 771.319 480.16C772.876 480.16 774.252 479.936 775.447 479.488C776.642 479.04 777.58 478.421 778.263 477.632C778.946 476.821 779.287 475.883 779.287 474.816C779.287 473.749 778.946 472.821 778.263 472.032C777.58 471.221 776.642 470.592 775.447 470.144C774.252 469.696 772.876 469.472 771.319 469.472ZM790.509 492.182C789.949 492.182 789.468 491.981 789.066 491.58C788.665 491.178 788.464 490.697 788.464 490.136C788.464 489.576 788.665 489.095 789.066 488.693C789.468 488.292 789.949 488.091 790.509 488.091C791.07 488.091 791.551 488.292 791.953 488.693C792.354 489.095 792.555 489.576 792.555 490.136C792.555 490.508 792.46 490.848 792.271 491.159C792.089 491.47 791.843 491.72 791.532 491.909C791.229 492.091 790.888 492.182 790.509 492.182Z" fill="#878787"/>
<path d="M490.28 527.92H493.6V564.16H490.28V527.92ZM466.04 531H469.36V540.52H479.8V531H483.08V555.44H466.04V531ZM469.36 543.16V552.68H479.8V543.16H469.36ZM502.677 529.92H519.557V544.72H502.677V529.92ZM516.317 532.6H505.917V542.08H516.317V532.6ZM527.117 527.92H530.437V546.52H527.117V527.92ZM507.037 548.36H530.437V557.08H510.357V562.16H507.117V554.64H527.157V551H507.037V548.36ZM507.117 561.04H531.637V563.72H507.117V561.04ZM554.674 538.12H565.034V540.84H554.674V538.12ZM564.034 527.96H567.354V554.72H564.034V527.96ZM544.114 560.6H568.194V563.32H544.114V560.6ZM544.114 552.12H547.434V561.96H544.114V552.12ZM539.354 530.36H542.674V536.72H552.434V530.36H555.714V548.56H539.354V530.36ZM542.674 539.32V545.88H552.434V539.32H542.674ZM575.991 533.24H605.391V535.96H575.991V533.24ZM574.391 557.16H607.191V559.88H574.391V557.16ZM589.071 551.4H592.351V558.2H589.071V551.4ZM590.711 538.36C593.137 538.36 595.231 538.64 596.991 539.2C598.777 539.733 600.151 540.507 601.111 541.52C602.071 542.533 602.551 543.773 602.551 545.24C602.551 546.68 602.071 547.92 601.111 548.96C600.151 550 598.777 550.8 596.991 551.36C595.231 551.893 593.137 552.16 590.711 552.16C588.284 552.16 586.177 551.893 584.391 551.36C582.631 550.8 581.271 550 580.311 548.96C579.351 547.92 578.871 546.68 578.871 545.24C578.871 543.773 579.351 542.533 580.311 541.52C581.271 540.507 582.631 539.733 584.391 539.2C586.177 538.64 588.284 538.36 590.711 538.36ZM590.711 541C588.951 541 587.431 541.173 586.151 541.52C584.897 541.84 583.924 542.32 583.231 542.96C582.564 543.573 582.231 544.333 582.231 545.24C582.231 546.12 582.564 546.88 583.231 547.52C583.924 548.16 584.897 548.653 586.151 549C587.431 549.32 588.951 549.48 590.711 549.48C592.471 549.48 593.977 549.32 595.231 549C596.484 548.653 597.457 548.16 598.151 547.52C598.844 546.88 599.191 546.12 599.191 545.24C599.191 544.333 598.844 543.573 598.151 542.96C597.457 542.32 596.484 541.84 595.231 541.52C593.977 541.173 592.471 541 590.711 541ZM589.071 528.52H592.351V534.88H589.071V528.52Z" fill="black"/>
<rect x="462" y="580" width="556" height="62" fill="#D9D9D9"/>
<path d="M496.349 595.536H499.005V624.528H496.349V595.536ZM476.957 598H479.613V605.616H487.965V598H490.589V617.552H476.957V598ZM479.613 607.728V615.344H487.965V607.728H479.613ZM506.267 597.136H519.771V608.976H506.267V597.136ZM517.179 599.28H508.859V606.864H517.179V599.28ZM525.819 595.536H528.475V610.416H525.819V595.536ZM509.755 611.888H528.475V618.864H512.411V622.928H509.819V616.912H525.851V614H509.755V611.888ZM509.819 622.032H529.435V624.176H509.819V622.032ZM547.864 603.696H556.152V605.872H547.864V603.696ZM555.352 595.568H558.008V616.976H555.352V595.568ZM539.416 621.68H558.68V623.856H539.416V621.68ZM539.416 614.896H542.072V622.768H539.416V614.896ZM535.608 597.488H538.264V602.576H546.072V597.488H548.696V612.048H535.608V597.488ZM538.264 604.656V609.904H546.072V604.656H538.264ZM564.918 599.792H588.438V601.968H564.918V599.792ZM563.638 618.928H589.878V621.104H563.638V618.928ZM575.382 614.32H578.006V619.76H575.382V614.32ZM576.694 603.888C578.635 603.888 580.31 604.112 581.718 604.56C583.147 604.987 584.246 605.605 585.014 606.416C585.782 607.227 586.166 608.219 586.166 609.392C586.166 610.544 585.782 611.536 585.014 612.368C584.246 613.2 583.147 613.84 581.718 614.288C580.31 614.715 578.635 614.928 576.694 614.928C574.753 614.928 573.067 614.715 571.638 614.288C570.23 613.84 569.142 613.2 568.374 612.368C567.606 611.536 567.222 610.544 567.222 609.392C567.222 608.219 567.606 607.227 568.374 606.416C569.142 605.605 570.23 604.987 571.638 604.56C573.067 604.112 574.753 603.888 576.694 603.888ZM576.694 606C575.286 606 574.07 606.139 573.046 606.416C572.043 606.672 571.265 607.056 570.71 607.568C570.177 608.059 569.91 608.667 569.91 609.392C569.91 610.096 570.177 610.704 570.71 611.216C571.265 611.728 572.043 612.123 573.046 612.4C574.07 612.656 575.286 612.784 576.694 612.784C578.102 612.784 579.307 612.656 580.31 612.4C581.313 612.123 582.091 611.728 582.646 611.216C583.201 610.704 583.478 610.096 583.478 609.392C583.478 608.667 583.201 608.059 582.646 607.568C582.091 607.056 581.313 606.672 580.31 606.416C579.307 606.139 578.102 606 576.694 606ZM575.382 596.016H578.006V601.104H575.382V596.016ZM593.043 608.976H619.283V611.024H593.043V608.976ZM596.179 613.328H616.019V619.504H598.867V622.896H596.243V617.68H613.395V615.248H596.179V613.328ZM596.243 622.192H616.947V624.112H596.243V622.192ZM596.371 596.4H615.923V602.416H599.059V605.552H596.435V600.624H613.299V598.288H596.371V596.4ZM596.435 604.912H616.435V606.832H596.435V604.912ZM652.569 595.536H655.225V611.088H652.569V595.536ZM636.601 612.528H639.193V616.016H652.601V612.528H655.225V624.112H636.601V612.528ZM639.193 618.128V621.936H652.601V618.128H639.193ZM639.705 596.912C641.177 596.912 642.478 597.2 643.609 597.776C644.74 598.331 645.625 599.109 646.265 600.112C646.926 601.115 647.257 602.277 647.257 603.6C647.257 604.901 646.926 606.064 646.265 607.088C645.625 608.091 644.74 608.869 643.609 609.424C642.478 609.979 641.177 610.256 639.705 610.256C638.254 610.256 636.953 609.979 635.801 609.424C634.67 608.869 633.774 608.091 633.113 607.088C632.473 606.064 632.153 604.901 632.153 603.6C632.153 602.277 632.473 601.115 633.113 600.112C633.774 599.109 634.67 598.331 635.801 597.776C636.953 597.2 638.254 596.912 639.705 596.912ZM639.705 599.152C638.745 599.152 637.892 599.344 637.145 599.728C636.398 600.091 635.812 600.613 635.385 601.296C634.958 601.957 634.745 602.725 634.745 603.6C634.745 604.453 634.958 605.221 635.385 605.904C635.812 606.565 636.398 607.088 637.145 607.472C637.892 607.856 638.745 608.048 639.705 608.048C640.665 608.048 641.518 607.856 642.265 607.472C643.012 607.088 643.598 606.565 644.025 605.904C644.452 605.221 644.665 604.453 644.665 603.6C644.665 602.725 644.452 601.957 644.025 601.296C643.598 600.613 643.012 600.091 642.265 599.728C641.518 599.344 640.665 599.152 639.705 599.152ZM662.166 609.904H664.214C666.113 609.904 667.734 609.893 669.078 609.872C670.444 609.829 671.681 609.755 672.79 609.648C673.921 609.541 675.062 609.381 676.214 609.168L676.47 611.344C675.596 611.493 674.732 611.621 673.878 611.728C673.025 611.813 672.129 611.877 671.19 611.92C670.252 611.963 669.217 611.995 668.086 612.016C666.956 612.037 665.665 612.048 664.214 612.048H662.166V609.904ZM662.102 597.296H674.55V605.488H664.79V611.184H662.166V603.44H671.926V599.44H662.102V597.296ZM682.102 595.568H684.758V613.36H682.102V595.568ZM676.47 599.856H682.71V602H676.47V599.856ZM676.47 605.84H682.71V608.016H676.47V605.84ZM665.398 614.896H684.758V624.528H682.102V617.072H665.398V614.896ZM690.324 600.496H704.692V602.672H690.324V600.496ZM697.524 604.592C698.74 604.592 699.807 604.869 700.724 605.424C701.663 605.979 702.399 606.757 702.932 607.76C703.465 608.741 703.732 609.883 703.732 611.184C703.732 612.485 703.465 613.637 702.932 614.64C702.399 615.621 701.663 616.4 700.724 616.976C699.807 617.531 698.74 617.808 697.524 617.808C696.329 617.808 695.263 617.531 694.324 616.976C693.385 616.4 692.649 615.621 692.116 614.64C691.583 613.637 691.316 612.485 691.316 611.184C691.316 609.883 691.583 608.741 692.116 607.76C692.649 606.779 693.385 606.011 694.324 605.456C695.263 604.88 696.329 604.592 697.524 604.592ZM697.524 606.832C696.799 606.832 696.137 607.024 695.54 607.408C694.964 607.771 694.505 608.283 694.164 608.944C693.844 609.584 693.684 610.331 693.684 611.184C693.684 612.037 693.844 612.795 694.164 613.456C694.505 614.117 694.964 614.629 695.54 614.992C696.137 615.355 696.799 615.536 697.524 615.536C698.271 615.536 698.932 615.355 699.508 614.992C700.084 614.629 700.532 614.117 700.852 613.456C701.193 612.795 701.364 612.037 701.364 611.184C701.364 610.331 701.193 609.584 700.852 608.944C700.532 608.283 700.084 607.771 699.508 607.408C698.932 607.024 698.271 606.832 697.524 606.832ZM712.34 595.536H714.868V624.496H712.34V595.536ZM707.7 607.728H713.172V609.904H707.7V607.728ZM706.132 596.208H708.628V623.088H706.132V596.208ZM696.212 596.4H698.836V601.808H696.212V596.4ZM731.409 598.416H733.713V599.632C733.713 600.656 733.511 601.627 733.105 602.544C732.7 603.461 732.135 604.315 731.409 605.104C730.684 605.872 729.841 606.555 728.881 607.152C727.921 607.749 726.887 608.261 725.777 608.688C724.689 609.093 723.559 609.392 722.385 609.584L721.361 607.472C722.385 607.344 723.377 607.109 724.337 606.768C725.319 606.405 726.236 605.979 727.089 605.488C727.943 604.997 728.689 604.443 729.329 603.824C729.991 603.205 730.503 602.544 730.865 601.84C731.228 601.115 731.409 600.379 731.409 599.632V598.416ZM732.081 598.416H734.385V599.632C734.385 600.379 734.567 601.115 734.929 601.84C735.292 602.544 735.793 603.205 736.433 603.824C737.095 604.443 737.852 604.997 738.705 605.488C739.559 605.979 740.465 606.405 741.425 606.768C742.407 607.109 743.409 607.344 744.433 607.472L743.441 609.584C742.268 609.392 741.127 609.093 740.017 608.688C738.908 608.261 737.873 607.749 736.913 607.152C735.953 606.555 735.111 605.872 734.385 605.104C733.66 604.315 733.095 603.461 732.689 602.544C732.284 601.627 732.081 600.656 732.081 599.632V598.416ZM731.537 613.456H734.161V624.464H731.537V613.456ZM719.825 612.016H745.969V614.192H719.825V612.016ZM722.289 597.328H743.473V599.472H722.289V597.328ZM760.655 605.904H766.223V608.112H760.655V605.904ZM755.279 598.256H757.359V603.792C757.359 605.285 757.199 606.757 756.879 608.208C756.58 609.659 756.132 611.024 755.535 612.304C754.959 613.584 754.255 614.736 753.423 615.76C752.591 616.784 751.652 617.616 750.607 618.256L748.943 616.272C749.924 615.675 750.81 614.928 751.599 614.032C752.388 613.136 753.05 612.133 753.583 611.024C754.138 609.893 754.554 608.72 754.831 607.504C755.13 606.267 755.279 605.029 755.279 603.792V598.256ZM755.791 598.256H757.839V603.696C757.839 604.848 757.967 606.011 758.223 607.184C758.5 608.336 758.884 609.445 759.375 610.512C759.887 611.557 760.516 612.517 761.263 613.392C762.01 614.267 762.852 614.992 763.791 615.568L762.287 617.616C761.242 616.976 760.314 616.165 759.503 615.184C758.692 614.181 758.01 613.061 757.455 611.824C756.9 610.565 756.484 609.243 756.207 607.856C755.93 606.469 755.791 605.083 755.791 603.696V598.256ZM771.311 595.536H773.871V624.496H771.311V595.536ZM765.423 596.144H767.919V623.024H765.423V596.144ZM785.132 610.448H787.756V619.088H785.132V610.448ZM795.82 610.448H798.476V619.088H795.82V610.448ZM778.7 618.576H804.94V620.784H778.7V618.576ZM791.756 597.36C793.804 597.36 795.618 597.669 797.196 598.288C798.775 598.907 800.012 599.771 800.908 600.88C801.826 601.989 802.284 603.301 802.284 604.816C802.284 606.309 801.826 607.621 800.908 608.752C800.012 609.861 798.775 610.725 797.196 611.344C795.618 611.941 793.804 612.24 791.756 612.24C789.73 612.24 787.916 611.941 786.316 611.344C784.738 610.725 783.5 609.861 782.604 608.752C781.708 607.621 781.26 606.309 781.26 604.816C781.26 603.301 781.708 601.989 782.604 600.88C783.5 599.771 784.738 598.907 786.316 598.288C787.916 597.669 789.73 597.36 791.756 597.36ZM791.756 599.472C790.22 599.472 788.855 599.696 787.66 600.144C786.466 600.592 785.527 601.221 784.844 602.032C784.162 602.821 783.82 603.749 783.82 604.816C783.82 605.883 784.162 606.821 784.844 607.632C785.527 608.421 786.466 609.04 787.66 609.488C788.855 609.936 790.22 610.16 791.756 610.16C793.314 610.16 794.69 609.936 795.884 609.488C797.079 609.04 798.018 608.421 798.7 607.632C799.383 606.821 799.724 605.883 799.724 604.816C799.724 603.749 799.383 602.821 798.7 602.032C798.018 601.221 797.079 600.592 795.884 600.144C794.69 599.696 793.314 599.472 791.756 599.472ZM810.947 622.182C810.386 622.182 809.905 621.981 809.504 621.58C809.102 621.178 808.901 620.697 808.901 620.136C808.901 619.576 809.102 619.095 809.504 618.693C809.905 618.292 810.386 618.091 810.947 618.091C811.508 618.091 811.989 618.292 812.39 618.693C812.792 619.095 812.992 619.576 812.992 620.136C812.992 620.508 812.898 620.848 812.708 621.159C812.526 621.47 812.28 621.72 811.97 621.909C811.667 622.091 811.326 622.182 810.947 622.182Z" fill="#878787"/>
<rect x="457" y="692" width="566" height="70" rx="30" fill="#0055FF"/>
<path d="M686.805 737.88H719.605V740.64H686.805V737.88ZM701.485 730.16H704.765V739.04H701.485V730.16ZM690.805 711.6H715.525V722.56H694.165V729.8H690.885V719.92H712.245V714.32H690.805V711.6ZM690.885 728.4H716.365V731.12H690.885V728.4ZM727.162 712.76H750.442V715.48H727.162V712.76ZM723.602 737.08H756.282V739.84H723.602V737.08ZM748.642 712.76H751.922V716.4C751.922 717.92 751.895 719.547 751.842 721.28C751.815 722.987 751.708 724.88 751.522 726.96C751.335 729.04 751.015 731.387 750.562 734L747.202 733.64C747.682 731.187 748.015 728.933 748.202 726.88C748.415 724.827 748.535 722.933 748.562 721.2C748.615 719.467 748.642 717.867 748.642 716.4V712.76ZM786.718 708.96H790.038V735.36H786.718V708.96ZM766.798 741.6H791.158V744.32H766.798V741.6ZM766.798 732.68H770.118V742.52H766.798V732.68ZM770.638 711.48C772.452 711.48 774.065 711.853 775.478 712.6C776.892 713.347 778.012 714.4 778.838 715.76C779.665 717.093 780.078 718.627 780.078 720.36C780.078 722.093 779.665 723.64 778.838 725C778.012 726.333 776.892 727.387 775.478 728.16C774.065 728.907 772.452 729.28 770.638 729.28C768.852 729.28 767.238 728.907 765.798 728.16C764.385 727.387 763.265 726.333 762.438 725C761.612 723.64 761.198 722.093 761.198 720.36C761.198 718.627 761.612 717.093 762.438 715.76C763.265 714.4 764.385 713.347 765.798 712.6C767.238 711.853 768.852 711.48 770.638 711.48ZM770.638 714.36C769.465 714.36 768.412 714.613 767.478 715.12C766.545 715.627 765.798 716.333 765.238 717.24C764.705 718.147 764.438 719.187 764.438 720.36C764.438 721.56 764.705 722.613 765.238 723.52C765.798 724.4 766.545 725.093 767.478 725.6C768.412 726.107 769.465 726.36 770.638 726.36C771.812 726.36 772.865 726.107 773.798 725.6C774.758 725.093 775.505 724.4 776.038 723.52C776.572 722.613 776.838 721.56 776.838 720.36C776.838 719.187 776.572 718.147 776.038 717.24C775.505 716.333 774.758 715.627 773.798 715.12C772.865 714.613 771.812 714.36 770.638 714.36Z" fill="white"/>
<rect x="457" y="812" width="566" height="70" rx="30" fill="#0246CE"/>
<path d="M678.726 850.64H682.046V856.6H678.726V850.64ZM694.566 828.92H697.886V865.12H694.566V828.92ZM669.086 858.24L668.606 855.44C670.9 855.413 673.38 855.387 676.046 855.36C678.713 855.333 681.433 855.24 684.206 855.08C686.98 854.92 689.66 854.667 692.246 854.32L692.486 856.8C689.82 857.227 687.113 857.547 684.366 857.76C681.62 857.947 678.94 858.08 676.326 858.16C673.713 858.213 671.3 858.24 669.086 858.24ZM669.366 833.36H691.326V836.04H669.366V833.36ZM680.326 838.08C682.06 838.08 683.58 838.36 684.886 838.92C686.193 839.48 687.206 840.267 687.926 841.28C688.673 842.267 689.046 843.44 689.046 844.8C689.046 846.133 688.673 847.307 687.926 848.32C687.206 849.333 686.193 850.12 684.886 850.68C683.58 851.213 682.06 851.48 680.326 851.48C678.62 851.48 677.113 851.213 675.806 850.68C674.5 850.12 673.486 849.333 672.766 848.32C672.046 847.307 671.686 846.133 671.686 844.8C671.686 843.44 672.046 842.267 672.766 841.28C673.486 840.267 674.5 839.48 675.806 838.92C677.113 838.36 678.62 838.08 680.326 838.08ZM680.326 840.68C678.726 840.68 677.406 841.053 676.366 841.8C675.326 842.547 674.806 843.547 674.806 844.8C674.806 846.027 675.326 847.013 676.366 847.76C677.406 848.507 678.726 848.88 680.326 848.88C681.98 848.88 683.313 848.507 684.326 847.76C685.366 847.013 685.886 846.027 685.886 844.8C685.886 843.547 685.366 842.547 684.326 841.8C683.313 841.053 681.98 840.68 680.326 840.68ZM678.726 828.96H682.046V834.8H678.726V828.96ZM715.443 847.16H718.763V855.2H715.443V847.16ZM731.483 828.96H734.803V856.44H731.483V828.96ZM710.123 861.6H735.683V864.32H710.123V861.6ZM710.123 853.76H713.443V862.32H710.123V853.76ZM705.443 848.4L705.003 845.64C707.243 845.64 709.67 845.627 712.283 845.6C714.923 845.547 717.616 845.453 720.363 845.32C723.11 845.16 725.763 844.92 728.323 844.6L728.563 847C725.976 847.427 723.31 847.747 720.563 847.96C717.843 848.147 715.19 848.267 712.603 848.32C710.016 848.373 707.63 848.4 705.443 848.4ZM724.123 850.32H732.363V852.72H724.123V850.32ZM716.763 830.4C718.55 830.4 720.11 830.667 721.443 831.2C722.776 831.707 723.803 832.44 724.523 833.4C725.27 834.333 725.643 835.44 725.643 836.72C725.643 837.973 725.27 839.08 724.523 840.04C723.803 841 722.776 841.733 721.443 842.24C720.11 842.747 718.55 843 716.763 843C715.003 843 713.443 842.747 712.083 842.24C710.75 841.733 709.71 841 708.963 840.04C708.243 839.08 707.883 837.973 707.883 836.72C707.883 835.44 708.243 834.333 708.963 833.4C709.71 832.44 710.75 831.707 712.083 831.2C713.443 830.667 715.003 830.4 716.763 830.4ZM716.763 832.88C715.056 832.88 713.67 833.227 712.603 833.92C711.536 834.613 711.003 835.547 711.003 836.72C711.003 837.867 711.536 838.787 712.603 839.48C713.67 840.173 715.056 840.52 716.763 840.52C718.443 840.52 719.816 840.173 720.883 839.48C721.95 838.787 722.483 837.867 722.483 836.72C722.483 835.92 722.243 835.24 721.763 834.68C721.283 834.12 720.616 833.68 719.763 833.36C718.91 833.04 717.91 832.88 716.763 832.88ZM766.48 828.92H769.8V865.08H766.48V828.92ZM768.92 843.6H775.56V846.36H768.92V843.6ZM757.24 832.8H760.48C760.48 836.24 759.92 839.533 758.8 842.68C757.68 845.8 755.92 848.693 753.52 851.36C751.12 854 747.96 856.293 744.04 858.24L742.2 855.68C745.56 854 748.347 852.04 750.56 849.8C752.8 847.533 754.467 845.027 755.56 842.28C756.68 839.507 757.24 836.52 757.24 833.32V832.8ZM743.88 832.8H758.92V835.56H743.88V832.8ZM805.117 828.92H808.437V848.36H805.117V828.92ZM785.157 850.16H788.397V854.52H805.157V850.16H808.437V864.64H785.157V850.16ZM788.397 857.16V861.92H805.157V857.16H788.397ZM789.037 830.64C790.877 830.64 792.504 831 793.917 831.72C795.33 832.413 796.437 833.387 797.237 834.64C798.064 835.893 798.477 837.347 798.477 839C798.477 840.627 798.064 842.08 797.237 843.36C796.437 844.613 795.33 845.587 793.917 846.28C792.504 846.973 790.877 847.32 789.037 847.32C787.224 847.32 785.597 846.973 784.157 846.28C782.744 845.587 781.624 844.613 780.797 843.36C779.997 842.08 779.597 840.627 779.597 839C779.597 837.347 779.997 835.893 780.797 834.64C781.624 833.387 782.744 832.413 784.157 831.72C785.597 831 787.224 830.64 789.037 830.64ZM789.037 833.44C787.837 833.44 786.77 833.68 785.837 834.16C784.904 834.613 784.17 835.267 783.637 836.12C783.104 836.947 782.837 837.907 782.837 839C782.837 840.067 783.104 841.027 783.637 841.88C784.17 842.707 784.904 843.36 785.837 843.84C786.77 844.32 787.837 844.56 789.037 844.56C790.237 844.56 791.304 844.32 792.237 843.84C793.17 843.36 793.904 842.707 794.437 841.88C794.97 841.027 795.237 840.067 795.237 839C795.237 837.907 794.97 836.947 794.437 836.12C793.904 835.267 793.17 834.613 792.237 834.16C791.304 833.68 790.237 833.44 789.037 833.44Z" fill="white"/>
</svg>
